<svg width="64" height="64" viewBox="0 0 64 64" fill="none" xmlns="http://www.w3.org/2000/svg">
  <!-- Background circle -->
  <circle cx="32" cy="32" r="32" fill="#1a1a1a"/>

  <!-- Decorative border -->
  <circle cx="32" cy="32" r="28" stroke="#D4AF37" stroke-width="1.5" fill="none" opacity="0.6"/>

  <!-- Letter T and S intertwined -->
  <g transform="translate(32, 32)">
    <!-- T for Time -->
    <path d="M -8 -12 L 8 -12 M 0 -12 L 0 8" stroke="#D4AF37" stroke-width="3.5" stroke-linecap="round" stroke-linejoin="round"/>

    <!-- Olive branch accent -->
    <g transform="translate(-12, 0)" opacity="0.8">
      <path d="M 0 -8 Q 1 -4 0 0" stroke="#7BA05B" stroke-width="1.5" fill="none" stroke-linecap="round"/>
      <ellipse cx="-1" cy="-6" rx="2" ry="1" fill="#7BA05B" opacity="0.7" transform="rotate(-30 -1 -6)"/>
      <ellipse cx="1" cy="-3" rx="2" ry="1" fill="#7BA05B" opacity="0.7" transform="rotate(30 1 -3)"/>
      <circle cx="0" cy="-5" r="0.8" fill="#8B7355"/>
    </g>

    <!-- Olive branch accent (right) -->
    <g transform="translate(12, 0) scale(-1, 1)" opacity="0.8">
      <path d="M 0 -8 Q 1 -4 0 0" stroke="#7BA05B" stroke-width="1.5" fill="none" stroke-linecap="round"/>
      <ellipse cx="-1" cy="-6" rx="2" ry="1" fill="#7BA05B" opacity="0.7" transform="rotate(-30 -1 -6)"/>
      <ellipse cx="1" cy="-3" rx="2" ry="1" fill="#7BA05B" opacity="0.7" transform="rotate(30 1 -3)"/>
      <circle cx="0" cy="-5" r="0.8" fill="#8B7355"/>
    </g>
  </g>

  <!-- Small decorative dots at cardinal points -->
  <circle cx="32" cy="8" r="1.5" fill="#7BA05B" opacity="0.5"/>
  <circle cx="32" cy="56" r="1.5" fill="#7BA05B" opacity="0.5"/>
  <circle cx="8" cy="32" r="1.5" fill="#7BA05B" opacity="0.5"/>
  <circle cx="56" cy="32" r="1.5" fill="#7BA05B" opacity="0.5"/>
</svg>
