<svg width="320" height="80" viewBox="0 0 320 80" fill="none" xmlns="http://www.w3.org/2000/svg">
  <!-- Background -->
  <rect width="320" height="80" fill="transparent"/>

  <!-- Left decorative element - Olive branch (Mediterranean symbol) -->
  <g transform="translate(18, 40)" opacity="0.85">
    <!-- Olive branch stem -->
    <path d="M 0 0 Q 4 -6 8 -12" stroke="#7BA05B" stroke-width="1.5" fill="none" stroke-linecap="round"/>
    <!-- Olive leaves -->
    <ellipse cx="2.5" cy="-4" rx="3.5" ry="1.8" fill="#7BA05B" opacity="0.7" transform="rotate(-30 2.5 -4)"/>
    <ellipse cx="5.5" cy="-8" rx="3.5" ry="1.8" fill="#7BA05B" opacity="0.7" transform="rotate(20 5.5 -8)"/>
    <ellipse cx="7" cy="-11" rx="3" ry="1.5" fill="#7BA05B" opacity="0.6" transform="rotate(-25 7 -11)"/>
    <!-- Olives -->
    <circle cx="4" cy="-5.5" r="1.2" fill="#8B7355"/>
    <circle cx="6.5" cy="-9.5" r="1.2" fill="#8B7355"/>
    <!-- Decorative line -->
    <line x1="10" y1="0" x2="25" y2="0" stroke="#D4AF37" stroke-width="0.6" opacity="0.5"/>
  </g>

  <!-- Main business name - RESTO CAFÉ -->
  <text x="160" y="28" font-family="'Georgia', 'Times New Roman', serif" font-size="16" font-weight="500"
        fill="#FFFFFF" text-anchor="middle" letter-spacing="4">
    RESTO CAFÉ
  </text>

  <!-- TIME SQUARE - larger and prominent -->
  <text x="160" y="50" font-family="'Georgia', 'Times New Roman', serif" font-size="22" font-weight="700"
        fill="#D4AF37" text-anchor="middle" letter-spacing="6">
    TIME SQUARE
  </text>

  <!-- Decorative underline with geometric pattern -->
  <g transform="translate(160, 57)">
    <line x1="-80" y1="0" x2="80" y2="0" stroke="#7BA05B" stroke-width="0.6" opacity="0.6"/>
    <!-- Small decorative squares -->
    <rect x="-84" y="-1.2" width="2.5" height="2.5" fill="none" stroke="#D4AF37" stroke-width="0.5" opacity="0.7"/>
    <rect x="81.5" y="-1.2" width="2.5" height="2.5" fill="none" stroke="#D4AF37" stroke-width="0.5" opacity="0.7"/>
  </g>

  <!-- Right decorative element - Olive branch (mirrored) -->
  <g transform="translate(302, 40) scale(-1, 1)" opacity="0.85">
    <!-- Olive branch stem -->
    <path d="M 0 0 Q 4 -6 8 -12" stroke="#7BA05B" stroke-width="1.5" fill="none" stroke-linecap="round"/>
    <!-- Olive leaves -->
    <ellipse cx="2.5" cy="-4" rx="3.5" ry="1.8" fill="#7BA05B" opacity="0.7" transform="rotate(-30 2.5 -4)"/>
    <ellipse cx="5.5" cy="-8" rx="3.5" ry="1.8" fill="#7BA05B" opacity="0.7" transform="rotate(20 5.5 -8)"/>
    <ellipse cx="7" cy="-11" rx="3" ry="1.5" fill="#7BA05B" opacity="0.6" transform="rotate(-25 7 -11)"/>
    <!-- Olives -->
    <circle cx="4" cy="-5.5" r="1.2" fill="#8B7355"/>
    <circle cx="6.5" cy="-9.5" r="1.2" fill="#8B7355"/>
    <!-- Decorative line -->
    <line x1="10" y1="0" x2="25" y2="0" stroke="#D4AF37" stroke-width="0.6" opacity="0.5"/>
  </g>

  <!-- Tagline -->
  <text x="160" y="68" font-family="'Georgia', 'Times New Roman', serif" font-size="6.5" font-weight="300"
        fill="#D4AF37" text-anchor="middle" letter-spacing="2" opacity="0.85">
    SANDWICH • MEDITERRANEAN • SALADS
  </text>

  <!-- Corner accents - minimalist geometric -->
  <g opacity="0.35">
    <!-- Top left -->
    <line x1="10" y1="10" x2="18" y2="10" stroke="#7BA05B" stroke-width="1"/>
    <line x1="10" y1="10" x2="10" y2="18" stroke="#7BA05B" stroke-width="1"/>

    <!-- Top right -->
    <line x1="302" y1="10" x2="310" y2="10" stroke="#7BA05B" stroke-width="1"/>
    <line x1="310" y1="10" x2="310" y2="18" stroke="#7BA05B" stroke-width="1"/>

    <!-- Bottom left -->
    <line x1="10" y1="70" x2="18" y2="70" stroke="#7BA05B" stroke-width="1"/>
    <line x1="10" y1="62" x2="10" y2="70" stroke="#7BA05B" stroke-width="1"/>

    <!-- Bottom right -->
    <line x1="302" y1="70" x2="310" y2="70" stroke="#7BA05B" stroke-width="1"/>
    <line x1="310" y1="62" x2="310" y2="70" stroke="#7BA05B" stroke-width="1"/>
  </g>
</svg>
