<svg width="480" height="90" viewBox="0 0 480 90" fill="none" xmlns="http://www.w3.org/2000/svg">
  <!-- Background -->
  <rect width="480" height="90" fill="transparent"/>

  <!-- Left decorative element - Olive branch (Mediterranean symbol) -->
  <g transform="translate(25, 45)" opacity="0.85">
    <!-- Olive branch stem -->
    <path d="M 0 0 Q 5 -8 10 -15" stroke="#7BA05B" stroke-width="1.8" fill="none" stroke-linecap="round"/>
    <!-- Olive leaves -->
    <ellipse cx="3" cy="-5" rx="4" ry="2" fill="#7BA05B" opacity="0.7" transform="rotate(-30 3 -5)"/>
    <ellipse cx="7" cy="-10" rx="4" ry="2" fill="#7BA05B" opacity="0.7" transform="rotate(20 7 -10)"/>
    <ellipse cx="9" cy="-14" rx="3.5" ry="1.8" fill="#7BA05B" opacity="0.6" transform="rotate(-25 9 -14)"/>
    <!-- Olives -->
    <circle cx="5" cy="-7" r="1.5" fill="#8B7355"/>
    <circle cx="8" cy="-12" r="1.5" fill="#8B7355"/>
    <!-- Decorative line -->
    <line x1="12" y1="0" x2="35" y2="0" stroke="#D4AF37" stroke-width="0.8" opacity="0.5"/>
  </g>

  <!-- Main business name - RESTO CAFÉ -->
  <text x="240" y="32" font-family="'Georgia', 'Times New Roman', serif" font-size="22" font-weight="500"
        fill="#FFFFFF" text-anchor="middle" letter-spacing="6">
    RESTO CAFÉ
  </text>

  <!-- TIME SQUARE - larger and prominent -->
  <text x="240" y="60" font-family="'Georgia', 'Times New Roman', serif" font-size="32" font-weight="700"
        fill="#D4AF37" text-anchor="middle" letter-spacing="9">
    TIME SQUARE
  </text>

  <!-- Decorative underline with geometric pattern -->
  <g transform="translate(240, 68)">
    <line x1="-120" y1="0" x2="120" y2="0" stroke="#7BA05B" stroke-width="0.8" opacity="0.6"/>
    <!-- Small decorative squares -->
    <rect x="-125" y="-1.5" width="3" height="3" fill="none" stroke="#D4AF37" stroke-width="0.6" opacity="0.7"/>
    <rect x="122" y="-1.5" width="3" height="3" fill="none" stroke="#D4AF37" stroke-width="0.6" opacity="0.7"/>
  </g>

  <!-- Right decorative element - Olive branch (mirrored) -->
  <g transform="translate(455, 45) scale(-1, 1)" opacity="0.85">
    <!-- Olive branch stem -->
    <path d="M 0 0 Q 5 -8 10 -15" stroke="#7BA05B" stroke-width="1.8" fill="none" stroke-linecap="round"/>
    <!-- Olive leaves -->
    <ellipse cx="3" cy="-5" rx="4" ry="2" fill="#7BA05B" opacity="0.7" transform="rotate(-30 3 -5)"/>
    <ellipse cx="7" cy="-10" rx="4" ry="2" fill="#7BA05B" opacity="0.7" transform="rotate(20 7 -10)"/>
    <ellipse cx="9" cy="-14" rx="3.5" ry="1.8" fill="#7BA05B" opacity="0.6" transform="rotate(-25 9 -14)"/>
    <!-- Olives -->
    <circle cx="5" cy="-7" r="1.5" fill="#8B7355"/>
    <circle cx="8" cy="-12" r="1.5" fill="#8B7355"/>
    <!-- Decorative line -->
    <line x1="12" y1="0" x2="35" y2="0" stroke="#D4AF37" stroke-width="0.8" opacity="0.5"/>
  </g>

  <!-- Tagline -->
  <text x="240" y="80" font-family="'Georgia', 'Times New Roman', serif" font-size="8" font-weight="300"
        fill="#D4AF37" text-anchor="middle" letter-spacing="2.5" opacity="0.85">
    SANDWICH • MEDITERRANEAN • SALADS • HEALTHY
  </text>

  <!-- Corner accents - minimalist geometric -->
  <g opacity="0.35">
    <!-- Top left -->
    <line x1="12" y1="12" x2="22" y2="12" stroke="#7BA05B" stroke-width="1.2"/>
    <line x1="12" y1="12" x2="12" y2="22" stroke="#7BA05B" stroke-width="1.2"/>

    <!-- Top right -->
    <line x1="458" y1="12" x2="468" y2="12" stroke="#7BA05B" stroke-width="1.2"/>
    <line x1="468" y1="12" x2="468" y2="22" stroke="#7BA05B" stroke-width="1.2"/>

    <!-- Bottom left -->
    <line x1="12" y1="78" x2="22" y2="78" stroke="#7BA05B" stroke-width="1.2"/>
    <line x1="12" y1="68" x2="12" y2="78" stroke="#7BA05B" stroke-width="1.2"/>

    <!-- Bottom right -->
    <line x1="458" y1="78" x2="468" y2="78" stroke="#7BA05B" stroke-width="1.2"/>
    <line x1="468" y1="68" x2="468" y2="78" stroke="#7BA05B" stroke-width="1.2"/>
  </g>
</svg>
